<?xml version="1.0" encoding="UTF-8" standalone="no"?>
<!DOCTYPE svg PUBLIC "-//W3C//DTD SVG 1.1//EN" "http://www.w3.org/Graphics/SVG/1.1/DTD/svg11.dtd">
<svg width="100%" height="100%" viewBox="0 0 256 256" version="1.1" xmlns="http://www.w3.org/2000/svg" xmlns:xlink="http://www.w3.org/1999/xlink" xml:space="preserve" xmlns:serif="http://www.serif.com/" style="fill-rule:evenodd;clip-rule:evenodd;stroke-linejoin:round;stroke-miterlimit:2;">
    <g id="Custom">
        <g id="s" transform="matrix(2.572,0,0,2.572,-201.216,-183.212)">
            <path class="svgBtn fa-secondary" d="M117.991,143.829L117.991,136.386C117.991,136.386 129.548,136.386 129.548,136.386L129.548,128.997C129.548,128.997 141.889,128.992 141.889,128.992L141.889,121.582C141.889,121.582 154.248,121.582 154.248,121.582L154.248,108.337L148.418,108.337L148.418,115.752C148.418,115.752 136.059,115.752 136.059,115.752L136.059,123.164C136.059,123.164 123.718,123.169 123.718,123.169L123.718,130.556C123.718,130.556 112.161,130.556 112.161,130.556L112.161,143.829L117.991,143.829ZM107.443,133.281L107.443,125.838C107.443,125.838 119,125.838 119,125.838L119,118.449C119,118.449 131.341,118.443 131.341,118.443L131.341,111.034C131.341,111.034 143.699,111.034 143.699,111.034L143.699,97.789L137.869,97.789L137.869,105.204C137.869,105.204 125.511,105.204 125.511,105.204L125.511,112.615C125.511,112.615 113.17,112.621 113.17,112.621L113.17,120.008C113.17,120.008 101.613,120.008 101.613,120.008L101.613,133.281L107.443,133.281Z"/>
        </g>
        <g id="p" transform="matrix(2.572,0,0,2.572,-201.216,-183.212)">
            <path class="svgBtn fa-primary" d="M171.985,122.159L140.944,78.946L84.015,119.841L115.056,163.054L171.985,122.159ZM139.61,87.082L163.849,120.825C163.849,120.825 116.39,154.918 116.39,154.918C116.39,154.918 92.151,121.175 92.151,121.175L139.61,87.082Z"/>
        </g>
    </g>
</svg>
