<?xml version="1.0" encoding="UTF-8" standalone="no"?>
<!DOCTYPE svg PUBLIC "-//W3C//DTD SVG 1.1//EN" "http://www.w3.org/Graphics/SVG/1.1/DTD/svg11.dtd">
<svg width="100%" height="100%" viewBox="0 0 256 256" version="1.1" xmlns="http://www.w3.org/2000/svg" xmlns:xlink="http://www.w3.org/1999/xlink" xml:space="preserve" xmlns:serif="http://www.serif.com/" style="fill-rule:evenodd;clip-rule:evenodd;stroke-linejoin:round;stroke-miterlimit:2;">
    <g id="Fireworks" transform="matrix(2.572,0,0,2.572,-138.573,-357.455)">
        <path class="svgBtn fa-primary" d="M104.725,194.307L104.725,194.275L98.184,194.275C98.184,194.275 98.184,162.832 98.184,162.832L78.646,162.762L78.646,177.615C78.646,177.615 67.689,177.615 67.689,177.615L67.689,186.668C67.689,189.422 65.851,191.621 64.063,192.994C63.137,193.705 62.286,194.307 61.689,194.307L58.064,194.307L58.064,201.557L61.689,201.557C63.306,201.557 65.97,200.671 68.479,198.744C71.837,196.165 74.939,191.84 74.939,186.668C74.939,186.668 74.939,184.865 74.939,184.865C74.939,184.865 85.896,184.865 85.896,184.865L85.896,170.038C85.896,170.038 90.934,170.056 90.934,170.056C90.934,170.056 90.934,201.525 90.934,201.525L102.505,201.525L102.505,201.557L106.13,201.557C107.748,201.557 110.412,200.671 112.921,198.744C116.279,196.165 119.381,191.84 119.381,186.668C119.381,186.668 119.381,184.865 119.381,184.865C119.381,184.865 130.338,184.865 130.338,184.865L130.338,170.038C130.338,170.038 135.376,170.056 135.376,170.056C135.376,170.056 135.376,201.525 135.376,201.525L149.225,201.525L149.225,194.275L142.626,194.275C142.626,194.275 142.626,162.832 142.626,162.832L123.088,162.762L123.088,177.615C123.088,177.615 112.131,177.615 112.131,177.615L112.131,186.668C112.131,189.422 110.293,191.621 108.505,192.994C107.579,193.705 106.727,194.307 106.13,194.307L104.725,194.307Z"/>
    </g>
</svg>
