<?xml version="1.0" encoding="UTF-8" standalone="no"?>
<!DOCTYPE svg PUBLIC "-//W3C//DTD SVG 1.1//EN" "http://www.w3.org/Graphics/SVG/1.1/DTD/svg11.dtd">
<svg width="100%" height="100%" viewBox="0 0 256 256" version="1.1" xmlns="http://www.w3.org/2000/svg" xmlns:xlink="http://www.w3.org/1999/xlink" xml:space="preserve" xmlns:serif="http://www.serif.com/" style="fill-rule:evenodd;clip-rule:evenodd;stroke-linejoin:round;stroke-miterlimit:2;">
    <g id="Wave" transform="matrix(2.572,0,0,2.572,-149.454,-355.83)">
        <path class="svgBtn fa-primary" d="M106.005,193.675C105.493,193.017 103.736,190.713 102.611,188.731C100.278,184.623 97.772,179.657 95.33,176.503C93.893,174.646 92.386,173.339 90.99,172.696C89.859,172.174 87.157,171.172 85.295,171.467C83.505,171.751 82.071,172.711 81.332,174.661C81.331,174.662 81.331,174.662 81.331,174.663C80.197,177.656 78.512,184.598 76.052,189.667C75.505,190.794 74.925,191.817 74.286,192.63C74.017,192.973 73.745,193.273 73.451,193.5C73.364,193.567 73.309,193.675 73.211,193.675C70.017,193.675 70.026,193.662 69,193.662L65.375,193.662L65.375,200.912L69,200.912C70.026,200.912 70.017,200.925 73.211,200.925C76.064,200.925 78.869,199.038 81.054,195.591C83.944,191.033 86.046,183.469 87.471,179.088C87.678,179.164 87.856,179.234 87.956,179.28C87.956,179.28 87.956,179.28 87.956,179.28C89.036,179.778 89.971,181.336 91.086,183.097C93.45,186.829 95.808,191.702 97.978,195.116C99.396,197.345 100.838,199.025 102.103,199.876C103.203,200.617 104.302,200.925 105.33,200.925L109.542,200.925C112.395,200.925 115.2,199.038 117.385,195.591C120.275,191.032 122.377,183.468 123.802,179.088C124.008,179.164 124.186,179.234 124.285,179.28C124.285,179.28 124.285,179.28 124.286,179.28C125.366,179.778 126.301,181.336 127.416,183.097C129.78,186.829 132.138,191.702 134.309,195.116C135.726,197.346 137.169,199.025 138.434,199.876C139.534,200.617 140.633,200.925 141.661,200.925L145.286,200.925L145.286,193.675L142.336,193.675C141.823,193.017 140.066,190.713 138.941,188.731C136.608,184.623 134.102,179.657 131.66,176.503C130.223,174.647 128.717,173.339 127.32,172.696C126.189,172.174 123.487,171.172 121.625,171.467C119.834,171.751 118.401,172.712 117.662,174.663C116.528,177.657 114.843,184.598 112.383,189.667C111.836,190.794 111.256,191.817 110.617,192.63C110.348,192.973 110.076,193.273 109.782,193.5C109.695,193.567 109.64,193.675 109.542,193.675L106.005,193.675Z"/>
    </g>
</svg>
