<?xml version="1.0" encoding="UTF-8" standalone="no"?>
<!DOCTYPE svg PUBLIC "-//W3C//DTD SVG 1.1//EN" "http://www.w3.org/Graphics/SVG/1.1/DTD/svg11.dtd">
<svg width="100%" height="100%" viewBox="0 0 512 512" version="1.1" xmlns="http://www.w3.org/2000/svg" xmlns:xlink="http://www.w3.org/1999/xlink" xml:space="preserve" xmlns:serif="http://www.serif.com/" style="fill-rule:evenodd;clip-rule:evenodd;stroke-linejoin:round;stroke-miterlimit:2;">
    <g transform="matrix(1.4324,0,0,1.4324,-170.449,-212.245)">
        <g id="Base">
            <circle cx="297.717" cy="326.896" r="178.721" style="fill:white;fill-opacity:0;"/>
            <path class="svgBtn fa-primary" d="M297.717,148.175C396.356,148.175 476.438,228.257 476.438,326.896C476.438,425.535 396.356,505.617 297.717,505.617C199.078,505.617 118.996,425.535 118.996,326.896C118.996,228.257 199.078,148.175 297.717,148.175ZM297.717,165.628C386.723,165.628 458.985,237.89 458.985,326.896C458.985,415.902 386.723,488.164 297.717,488.164C208.711,488.164 136.449,415.902 136.449,326.896C136.449,237.89 208.711,165.628 297.717,165.628Z"/>
        </g>
    </g>
    <g transform="matrix(0.762561,0,0,1,24.411,-15.0728)">
        <g id="Level_1">
            <path class="svgBtn fa-primary" d="M303.699,214.436C328.762,178.721 378.888,178.721 403.951,196.579C429.016,214.436 429.016,250.151 403.951,285.867C386.407,312.653 341.293,339.439 303.699,357.297C266.104,339.439 220.99,312.653 203.446,285.867C178.382,250.151 178.382,214.436 203.446,196.579C228.509,178.721 278.635,178.721 303.699,214.436Z"/>
        </g>
    </g>
    <g id="Level_2">
        <g transform="matrix(0.527028,0,0,0.691129,221.091,-42.4027)">
            <path class="svgBtn fa-primary" d="M303.699,214.436C328.762,178.721 378.888,178.721 403.951,196.579C429.016,214.436 429.016,250.151 403.951,285.867C386.407,312.653 341.293,339.439 303.699,357.297C266.104,339.439 220.99,312.653 203.446,285.867C178.382,250.151 178.382,214.436 203.446,196.579C228.509,178.721 278.635,178.721 303.699,214.436Z" style="fill-opacity:0.8;"/>
        </g>
        <g transform="matrix(0.335595,0,0,0.440089,5.68239,50.4801)">
            <path class="svgBtn fa-primary" d="M303.699,214.436C328.762,178.721 378.888,178.721 403.951,196.579C429.016,214.436 429.016,250.151 403.951,285.867C386.407,312.653 341.293,339.439 303.699,357.297C266.104,339.439 220.99,312.653 203.446,285.867C178.382,250.151 178.382,214.436 203.446,196.579C228.509,178.721 278.635,178.721 303.699,214.436Z" style="fill-opacity:0.6;"/>
        </g>
    </g>
</svg>
