<?xml version="1.0" encoding="UTF-8" standalone="no"?>
<!DOCTYPE svg PUBLIC "-//W3C//DTD SVG 1.1//EN" "http://www.w3.org/Graphics/SVG/1.1/DTD/svg11.dtd">
<svg width="100%" height="100%" viewBox="0 0 512 512" version="1.1" xmlns="http://www.w3.org/2000/svg" xmlns:xlink="http://www.w3.org/1999/xlink" xml:space="preserve" xmlns:serif="http://www.serif.com/" style="fill-rule:evenodd;clip-rule:evenodd;stroke-linejoin:round;stroke-miterlimit:2;">
    <g transform="matrix(1.4324,0,0,1.4324,-170.449,-212.245)">
        <g id="Base">
            <circle class="svgBtn fa-primary" cx="297.717" cy="326.896" r="178.721" style="fill:white;fill-opacity:0;"/>
            <path class="svgBtn fa-primary" d="M297.717,148.175C396.356,148.175 476.438,228.257 476.438,326.896C476.438,425.535 396.356,505.617 297.717,505.617C199.078,505.617 118.996,425.535 118.996,326.896C118.996,228.257 199.078,148.175 297.717,148.175ZM297.717,165.628C386.723,165.628 458.985,237.89 458.985,326.896C458.985,415.902 386.723,488.164 297.717,488.164C208.711,488.164 136.449,415.902 136.449,326.896C136.449,237.89 208.711,165.628 297.717,165.628Z"/>
        </g>
    </g>
    <g id="Orgasm_OnKnees">
        <g transform="matrix(1,0,0,1,-276.971,-41.0328)">
            <circle class="svgBtn fa-primary" cx="385.466" cy="277.442" r="29.879" style="fill:rgb(3,3,3);"/>
        </g>
        <path class="svgBtn fa-primary" d="M178.103,308.19L178.103,241.244C178.103,241.244 320.15,241.244 320.15,241.244C320.15,241.244 320.15,306.537 320.15,306.537C320.15,311.37 324.068,315.287 328.9,315.287L413.101,315.287C417.931,315.287 421.851,311.367 421.851,306.537C421.851,301.708 417.931,297.787 413.101,297.787L337.65,297.787C337.65,297.787 337.65,232.494 337.65,232.494C337.65,227.662 333.733,223.744 328.9,223.744L169.353,223.744C164.521,223.744 160.603,227.662 160.603,232.494L160.603,308.19C160.603,313.019 164.524,316.94 169.353,316.94C174.183,316.94 178.103,313.019 178.103,308.19Z"/>
    </g>
</svg>
