<?xml version="1.0" encoding="UTF-8" standalone="no"?>
<!DOCTYPE svg PUBLIC "-//W3C//DTD SVG 1.1//EN" "http://www.w3.org/Graphics/SVG/1.1/DTD/svg11.dtd">
<svg width="100%" height="100%" viewBox="0 0 512 512" version="1.1" xmlns="http://www.w3.org/2000/svg" xmlns:xlink="http://www.w3.org/1999/xlink" xml:space="preserve" xmlns:serif="http://www.serif.com/" style="fill-rule:evenodd;clip-rule:evenodd;stroke-linejoin:round;stroke-miterlimit:2;">
    <g transform="matrix(1.4324,0,0,1.4324,-170.449,-212.245)">
        <g id="Base">
            <circle class="svgBtn fa-primary" cx="297.717" cy="326.896" r="178.721" style="fill:white;fill-opacity:0;"/>
            <path class="svgBtn fa-primary" d="M297.717,148.175C396.356,148.175 476.438,228.257 476.438,326.896C476.438,425.535 396.356,505.617 297.717,505.617C199.078,505.617 118.996,425.535 118.996,326.896C118.996,228.257 199.078,148.175 297.717,148.175ZM297.717,165.628C386.723,165.628 458.985,237.89 458.985,326.896C458.985,415.902 386.723,488.164 297.717,488.164C208.711,488.164 136.449,415.902 136.449,326.896C136.449,237.89 208.711,165.628 297.717,165.628Z"/>
        </g>
    </g>
    <g id="Orgasm_Stand">
        <circle class="svgBtn fa-primary" cx="256" cy="92.096" r="39.764" style="fill:rgb(3,3,3);"/>
        <path class="svgBtn fa-primary" d="M238.778,297.557L238.48,417.672C238.48,417.672 238.487,427.3 225.785,427.267C213.28,427.233 213.381,417.672 213.381,417.672L213.979,172.582L196.35,172.283L196.472,297.223C196.472,297.223 196.439,306.595 183.889,306.595C171.34,306.595 171.373,297.228 171.373,297.228L171.109,167.281C171.109,167.281 171.209,158.36 175.184,153.861C179.567,148.902 187.955,148.842 187.955,148.842L324.045,148.842C324.045,148.842 332.433,148.902 336.816,153.861C340.791,158.36 340.891,167.281 340.891,167.281L340.627,297.228C340.627,297.228 340.66,306.595 328.111,306.595C315.561,306.595 315.528,297.223 315.528,297.223L315.65,172.283L298.021,172.582L298.619,417.672C298.619,417.672 298.72,427.233 286.215,427.267C273.513,427.3 273.52,417.672 273.52,417.672L273.222,297.557L238.778,297.557Z"/>
    </g>
</svg>
