<?xml version="1.0" encoding="UTF-8" standalone="no"?>
<!DOCTYPE svg PUBLIC "-//W3C//DTD SVG 1.1//EN" "http://www.w3.org/Graphics/SVG/1.1/DTD/svg11.dtd">
<svg width="100%" height="100%" viewBox="0 0 512 512" version="1.1" xmlns="http://www.w3.org/2000/svg" xmlns:xlink="http://www.w3.org/1999/xlink" xml:space="preserve" xmlns:serif="http://www.serif.com/" style="fill-rule:evenodd;clip-rule:evenodd;stroke-linejoin:round;stroke-miterlimit:2;">
    <g transform="matrix(1.4324,0,0,1.4324,-170.449,-212.245)">
        <g id="Base">
            <circle class="svgBtn fa-primary" cx="297.717" cy="326.896" r="178.721" style="fill:white;fill-opacity:0;"/>
            <path class="svgBtn fa-primary" d="M297.717,148.175C396.356,148.175 476.438,228.257 476.438,326.896C476.438,425.535 396.356,505.617 297.717,505.617C199.078,505.617 118.996,425.535 118.996,326.896C118.996,228.257 199.078,148.175 297.717,148.175ZM297.717,165.628C386.723,165.628 458.985,237.89 458.985,326.896C458.985,415.902 386.723,488.164 297.717,488.164C208.711,488.164 136.449,415.902 136.449,326.896C136.449,237.89 208.711,165.628 297.717,165.628Z"/>
        </g>
    </g>
    <g id="Orgasm_OnBack">
        <circle class="svgBtn fa-primary" cx="385.466" cy="277.442" r="29.879" style="fill:rgb(3,3,3);"/>
        <path class="svgBtn fa-primary" d="M335.639,288.096C335.639,288.096 343.996,287.882 344.054,278.766C344.112,269.587 335.551,269.49 335.551,269.49L217.802,269.413L168.074,224.313C168.074,224.313 165.086,220.735 158.821,220.888C153.717,221.013 149.725,224.606 149.725,224.606L100.915,270.513C100.915,270.513 92.806,279.098 100.012,286.904C106.361,293.783 115.796,285.119 115.796,285.119L159.843,243.44L209.353,288.019L335.639,288.096Z"/>
        <path class="svgBtn fa-primary" d="M335.639,288.096C335.639,288.096 343.996,287.882 344.054,278.766C344.112,269.587 335.551,269.49 335.551,269.49L217.802,269.413L168.074,224.313C168.074,224.313 165.086,220.735 158.821,220.888C153.717,221.013 149.725,224.606 149.725,224.606L100.915,270.513C100.915,270.513 92.806,279.098 100.012,286.904C106.361,293.783 115.796,285.119 115.796,285.119L159.843,243.44L209.353,288.019L335.639,288.096ZM335.567,283.93L210.953,283.854C210.953,283.854 162.631,240.343 162.631,240.343C161.017,238.89 158.557,238.92 156.979,240.413L112.964,282.062C112.794,282.214 111.019,283.777 108.69,284.742C106.977,285.451 104.798,285.946 103.073,284.078C98.734,279.377 103.123,274.26 103.847,273.477C103.853,273.47 152.54,227.679 152.54,227.679C152.877,227.384 155.552,225.136 158.923,225.054C162.897,224.957 164.877,226.984 164.877,226.984C165,227.131 165.133,227.27 165.275,227.399L215.003,272.499C215.769,273.194 216.766,273.579 217.8,273.58C217.8,273.58 333.552,273.656 335.522,273.657C335.738,273.661 337.75,273.741 338.967,275.289C339.572,276.059 339.897,277.183 339.887,278.74C339.877,280.316 339.532,281.458 338.92,282.246C337.763,283.736 335.915,283.909 335.584,283.929L335.567,283.93Z"/>
    </g>
</svg>
