<?xml version="1.0" encoding="UTF-8" standalone="no"?>
<!DOCTYPE svg PUBLIC "-//W3C//DTD SVG 1.1//EN" "http://www.w3.org/Graphics/SVG/1.1/DTD/svg11.dtd">
<svg width="100%" height="100%" viewBox="0 0 2363 2363" version="1.1" xmlns="http://www.w3.org/2000/svg" xmlns:xlink="http://www.w3.org/1999/xlink" xml:space="preserve" xmlns:serif="http://www.serif.com/" style="fill-rule:evenodd;clip-rule:evenodd;stroke-linejoin:round;stroke-miterlimit:2;">
    <path id="a_o" class="svgBtn fa-primary" d="M1181.1,694.193C1449.84,694.193 1668.01,912.37 1668.01,1181.1C1668.01,1449.84 1449.84,1668.01 1181.1,1668.01C912.37,1668.01 694.193,1449.84 694.193,1181.1C694.193,912.37 912.37,694.193 1181.1,694.193ZM1181.1,951.098C1197.49,962.349 1215.95,970.98 1235.97,976.344C1255.99,981.709 1276.29,983.465 1296.11,981.913C1304.67,999.847 1316.34,1016.55 1331,1031.21C1345.65,1045.87 1362.36,1057.54 1380.29,1066.1C1378.74,1085.91 1380.5,1106.22 1385.86,1126.24C1391.23,1146.26 1399.86,1164.72 1411.11,1181.1C1399.86,1197.49 1391.23,1215.95 1385.86,1235.97C1380.5,1255.99 1378.74,1276.29 1380.29,1296.11C1362.36,1304.67 1345.65,1316.34 1331,1331C1316.34,1345.65 1304.67,1362.36 1296.11,1380.29C1276.29,1378.74 1255.99,1380.5 1235.97,1385.86C1215.95,1391.23 1197.49,1399.86 1181.1,1411.11C1164.72,1399.86 1146.26,1391.23 1126.24,1385.86C1106.22,1380.5 1085.91,1378.74 1066.1,1380.29C1057.54,1362.36 1045.87,1345.65 1031.21,1331C1016.55,1316.34 999.847,1304.67 981.913,1296.11C983.465,1276.29 981.709,1255.99 976.344,1235.97C970.98,1215.95 962.349,1197.49 951.098,1181.1C962.349,1164.72 970.98,1146.26 976.344,1126.24C981.709,1106.22 983.465,1085.91 981.913,1066.1C999.847,1057.54 1016.55,1045.87 1031.21,1031.21C1045.87,1016.55 1057.54,999.847 1066.1,981.913C1085.91,983.465 1106.22,981.709 1126.24,976.344C1146.26,970.98 1164.72,962.349 1181.1,951.098Z"/>
</svg>
