<?xml version="1.0" encoding="UTF-8" standalone="no"?>
<!DOCTYPE svg PUBLIC "-//W3C//DTD SVG 1.1//EN" "http://www.w3.org/Graphics/SVG/1.1/DTD/svg11.dtd">
<svg width="100%" height="100%" viewBox="0 0 2363 2363" version="1.1" xmlns="http://www.w3.org/2000/svg" xmlns:xlink="http://www.w3.org/1999/xlink" xml:space="preserve" xmlns:serif="http://www.serif.com/" style="fill-rule:evenodd;clip-rule:evenodd;stroke-linejoin:round;stroke-miterlimit:2;">
    <path id="a_g" class="svgBtn fa-primary" d="M1181.1,303.616C1665.4,303.616 2058.59,696.805 2058.59,1181.1C2058.59,1665.4 1665.4,2058.59 1181.1,2058.59C696.805,2058.59 303.616,1665.4 303.616,1181.1C303.616,696.805 696.805,303.616 1181.1,303.616ZM1181.1,579.033C1197.02,640.335 1244.77,690.034 1308.13,707.014C1371.5,723.993 1437.7,704.827 1482.14,659.695C1465.27,720.741 1481.77,787.657 1528.16,834.045C1574.55,880.434 1641.46,896.937 1702.51,880.068C1657.38,924.5 1638.21,990.703 1655.19,1054.07C1672.17,1117.44 1721.87,1165.19 1783.17,1181.1C1721.87,1197.02 1672.17,1244.77 1655.19,1308.13C1638.21,1371.5 1657.38,1437.7 1702.51,1482.14C1641.46,1465.27 1574.55,1481.77 1528.16,1528.16C1481.77,1574.55 1465.27,1641.46 1482.14,1702.51C1437.7,1657.38 1371.5,1638.21 1308.13,1655.19C1244.77,1672.17 1197.02,1721.87 1181.1,1783.17C1165.19,1721.87 1117.44,1672.17 1054.07,1655.19C990.703,1638.21 924.5,1657.38 880.068,1702.51C896.937,1641.46 880.434,1574.55 834.045,1528.16C787.657,1481.77 720.741,1465.27 659.695,1482.14C704.827,1437.7 723.993,1371.5 707.014,1308.13C690.034,1244.77 640.335,1197.02 579.033,1181.1C640.335,1165.19 690.034,1117.44 707.014,1054.07C723.993,990.703 704.827,924.5 659.695,880.068C720.741,896.937 787.657,880.434 834.045,834.045C880.434,787.657 896.937,720.741 880.068,659.695C924.5,704.827 990.703,723.993 1054.07,707.014C1117.44,690.034 1165.19,640.335 1181.1,579.033Z"/>
</svg>
