<?xml version="1.0" encoding="UTF-8" standalone="no"?>
<!DOCTYPE svg PUBLIC "-//W3C//DTD SVG 1.1//EN" "http://www.w3.org/Graphics/SVG/1.1/DTD/svg11.dtd">
<svg width="100%" height="100%" viewBox="0 0 2363 2363" version="1.1" xmlns="http://www.w3.org/2000/svg" xmlns:xlink="http://www.w3.org/1999/xlink" xml:space="preserve" xmlns:serif="http://www.serif.com/" style="fill-rule:evenodd;clip-rule:evenodd;stroke-linejoin:round;stroke-miterlimit:2;">
    <g transform="matrix(0.789845,0.45308,-0.411891,0.718041,319.869,-907.3)">
        <path class="svgBtn" d="M1379.99,707.21C1379.99,707.21 985.116,1508.81 985.116,1852.35C985.116,2092.08 1162.05,2286.71 1379.99,2286.71C1597.93,2286.71 1774.87,2092.08 1774.87,1852.35C1774.87,1508.81 1379.99,707.21 1379.99,707.21Z"/>
    </g>
    <g transform="matrix(0.796933,0.440493,-0.400448,0.724485,603.834,52.7526)">
        <path class="svgBtn" d="M1379.99,707.21C1379.99,707.21 985.116,1508.81 985.116,1852.35C985.116,2092.08 1162.05,2286.71 1379.99,2286.71C1597.93,2286.71 1774.87,2092.08 1774.87,1852.35C1774.87,1508.81 1379.99,707.21 1379.99,707.21Z"/>
    </g>
    <g transform="matrix(0.707433,0.573302,-0.521184,0.643121,1467.22,-1245.97)">
        <path class="svgBtn" d="M1379.99,707.21C1379.99,707.21 985.116,1508.81 985.116,1852.35C985.116,2092.08 1162.05,2286.71 1379.99,2286.71C1597.93,2286.71 1774.87,2092.08 1774.87,1852.35C1774.87,1508.81 1379.99,707.21 1379.99,707.21Z"/>
    </g>
</svg>
