<?xml version="1.0" encoding="UTF-8" standalone="no"?>
<!DOCTYPE svg PUBLIC "-//W3C//DTD SVG 1.1//EN" "http://www.w3.org/Graphics/SVG/1.1/DTD/svg11.dtd">
<svg width="100%" height="100%" viewBox="0 0 3130 3130" version="1.1" xmlns="http://www.w3.org/2000/svg" xmlns:xlink="http://www.w3.org/1999/xlink" xml:space="preserve" xmlns:serif="http://www.serif.com/" style="fill-rule:evenodd;clip-rule:evenodd;stroke-linecap:round;stroke-linejoin:round;stroke-miterlimit:1.5;">
    <g id="v_o" transform="matrix(1,0,0,1,-915.354,-551.745)">
        <circle cx="2483.27" cy="1143.21" r="103.836" class="svgBtn fa-secondary"/>
        <circle cx="2480.32" cy="1545.4" r="44.565" class="svgBtn fa-secondary"/>
        <path d="M2479.53,572.581C2479.8,572.421 2480.06,572.35 2480.32,572.365L2480.89,572.336C2529.59,570.123 2584.62,632.158 2599.62,674.782C2623.83,743.557 2680.68,1029.94 2699.05,1217.05C2737.35,1607.15 2923.37,1987.14 2923.51,2222C2923.74,2603.67 2902.97,2754.95 2617.97,3478.05C2592.63,3542.33 2552.85,3616.83 2480.32,3661.13L2479.53,3660.65L2478.75,3661.13C2406.22,3616.83 2366.43,3542.33 2341.1,3478.05C2056.1,2754.95 2035.33,2603.67 2035.56,2222C2035.7,1987.14 2221.72,1607.15 2260.02,1217.05C2278.39,1029.94 2335.24,743.557 2359.44,674.782C2374.45,632.158 2429.48,570.123 2478.18,572.336L2478.75,572.365C2479.01,572.35 2479.27,572.421 2479.53,572.581ZM2480.32,1016.67C2404.41,1016.67 2305.01,1080.57 2371.97,1273.08C2400.46,1355.01 2384.54,1526.67 2332.46,1628.83C2199.11,1890.4 2174.57,2311.59 2175.8,2431.13C2177.38,2585.9 2479.53,3478.05 2479.53,3478.05C2479.53,3478.05 2781.69,2585.9 2783.27,2431.13C2784.49,2311.59 2759.96,1890.4 2626.61,1628.83C2574.53,1526.67 2558.61,1355.01 2587.1,1273.08C2653.79,1081.32 2556.22,1016.67 2480.32,1016.67Z" class="svgBtn fa-primary"/>
    </g>
</svg>
