<?xml version="1.0" encoding="UTF-8" standalone="no"?>
<!DOCTYPE svg PUBLIC "-//W3C//DTD SVG 1.1//EN" "http://www.w3.org/Graphics/SVG/1.1/DTD/svg11.dtd">
<svg width="100%" height="100%" viewBox="0 0 3130 3130" version="1.1" xmlns="http://www.w3.org/2000/svg" xmlns:xlink="http://www.w3.org/1999/xlink" xml:space="preserve" xmlns:serif="http://www.serif.com/" style="fill-rule:evenodd;clip-rule:evenodd;stroke-linecap:round;stroke-linejoin:round;stroke-miterlimit:1.5;">
    <g id="v_g" transform="matrix(1,0,0,1,-915.354,-551.745)">
        <circle cx="2483.27" cy="1143.21" r="103.836" class="svgBtn fa-secondary"/>
        <circle cx="2480.32" cy="1545.4" r="44.565" class="svgBtn fa-secondary"/>
        <path d="M2480.72,572.319C2480.86,572.324 2481,572.329 2481.13,572.336L2481.71,572.365C2481.97,572.35 2482.22,572.421 2482.49,572.581C2482.75,572.421 2483.01,572.35 2483.27,572.365L2483.84,572.336C2532.54,570.123 2583.77,633.694 2602.58,674.782C2672,826.447 2602.89,1013.23 2728.38,1220.82C2814.85,1363.87 3094.02,1889.38 3137.46,2222C3210.35,2780.25 2951.13,3192 2673.67,3489.35C2626.53,3539.87 2555.81,3616.83 2483.27,3661.13L2482.49,3660.65L2481.71,3661.13C2481.24,3660.85 2480.78,3660.57 2480.32,3660.28C2479.85,3660.57 2479.39,3660.85 2478.92,3661.13L2478.14,3660.65L2477.36,3661.13C2404.82,3616.83 2334.1,3539.87 2286.96,3489.35C2009.5,3192 1750.28,2780.25 1823.17,2222C1866.61,1889.38 2145.78,1363.87 2232.25,1220.82C2357.74,1013.23 2288.63,826.447 2358.05,674.782C2376.86,633.694 2428.09,570.123 2476.79,572.336L2477.36,572.365C2477.62,572.35 2477.88,572.421 2478.14,572.581C2478.41,572.421 2478.66,572.35 2478.92,572.365L2479.5,572.336C2479.77,572.323 2480.04,572.313 2480.32,572.305L2480.72,572.319ZM2479.57,1016.68C2478.83,1016.67 2478.1,1016.67 2477.36,1016.67C2401.45,1016.67 2303.88,1081.32 2370.57,1273.08C2399.07,1355.01 2213.6,1534.21 2161.52,1636.37C2028.17,1897.94 1856.85,2150.7 1959.65,2743.85C2019.55,3089.46 2478.14,3590.16 2478.14,3590.16C2478.14,3590.16 2478.89,3587.67 2480.32,3582.92C2481.74,3587.67 2482.49,3590.16 2482.49,3590.16C2482.49,3590.16 2941.09,3089.46 3000.98,2743.85C3103.78,2150.7 2932.46,1897.94 2799.11,1636.37C2747.03,1534.21 2561.56,1355.01 2590.06,1273.08C2656.75,1081.32 2559.18,1016.67 2483.27,1016.67C2482.53,1016.67 2481.8,1016.67 2481.06,1016.68L2480.32,1016.7L2479.57,1016.68Z" class="svgBtn fa-primary"/>
    </g>
</svg>
